<?xml version="1.0" encoding="utf-8"?>
<svg xmlns="http://www.w3.org/2000/svg" width="210mm" height="297mm" viewBox="0 0 210 297">
<style>text{font-family:'Noto Sans JP','Hiragino Sans','Yu Gothic','Meiryo',sans-serif}.t{font-size:6.5px;fill:#111;text-anchor:middle}.n{font-size:3.6px;fill:#444;text-anchor:middle}.s{font-size:3.6px;fill:#333}.f{font-size:3.8px;fill:#333}.c{font-size:3.4px;fill:#111;text-anchor:middle}.c4{font-size:2.8px;fill:#111;text-anchor:middle}circle.d{fill:#111}rect.q{fill:#fff;stroke:#999;stroke-width:.25}</style>
<rect width="210" height="297" fill="#fff"/>
<text class="t" x="105" y="22">パスカルの三角形　16 行</text>
<rect class="q" x="99.2" y="36.0" width="11.5" height="11.5"/><text class="c" x="105.0" y="43.0">1</text>
<rect class="q" x="93.5" y="47.5" width="11.5" height="11.5"/><text class="c" x="99.2" y="54.5">1</text>
<rect class="q" x="105.0" y="47.5" width="11.5" height="11.5"/><text class="c" x="110.8" y="54.5">1</text>
<rect class="q" x="87.8" y="59.0" width="11.5" height="11.5"/><text class="c" x="93.5" y="66.0">1</text>
<rect class="q" x="99.2" y="59.0" width="11.5" height="11.5"/><text class="c" x="105.0" y="66.0">2</text>
<rect class="q" x="110.8" y="59.0" width="11.5" height="11.5"/><text class="c" x="116.5" y="66.0">1</text>
<rect class="q" x="82.0" y="70.5" width="11.5" height="11.5"/><text class="c" x="87.8" y="77.5">1</text>
<rect class="q" x="93.5" y="70.5" width="11.5" height="11.5"/><text class="c" x="99.2" y="77.5">3</text>
<rect class="q" x="105.0" y="70.5" width="11.5" height="11.5"/><text class="c" x="110.8" y="77.5">3</text>
<rect class="q" x="116.5" y="70.5" width="11.5" height="11.5"/><text class="c" x="122.2" y="77.5">1</text>
<rect class="q" x="76.2" y="82.0" width="11.5" height="11.5"/><text class="c" x="82.0" y="89.0">1</text>
<rect class="q" x="87.8" y="82.0" width="11.5" height="11.5"/><text class="c" x="93.5" y="89.0">4</text>
<rect class="q" x="99.2" y="82.0" width="11.5" height="11.5"/><text class="c" x="105.0" y="89.0">6</text>
<rect class="q" x="110.8" y="82.0" width="11.5" height="11.5"/><text class="c" x="116.5" y="89.0">4</text>
<rect class="q" x="122.2" y="82.0" width="11.5" height="11.5"/><text class="c" x="128.0" y="89.0">1</text>
<rect class="q" x="70.5" y="93.5" width="11.5" height="11.5"/><text class="c" x="76.2" y="100.5">1</text>
<rect class="q" x="82.0" y="93.5" width="11.5" height="11.5"/><text class="c" x="87.8" y="100.5">5</text>
<rect class="q" x="93.5" y="93.5" width="11.5" height="11.5"/><text class="c" x="99.2" y="100.5">10</text>
<rect class="q" x="105.0" y="93.5" width="11.5" height="11.5"/><text class="c" x="110.8" y="100.5">10</text>
<rect class="q" x="116.5" y="93.5" width="11.5" height="11.5"/><text class="c" x="122.2" y="100.5">5</text>
<rect class="q" x="128.0" y="93.5" width="11.5" height="11.5"/><text class="c" x="133.8" y="100.5">1</text>
<rect class="q" x="64.8" y="105.0" width="11.5" height="11.5"/><text class="c" x="70.5" y="112.0">1</text>
<rect class="q" x="76.2" y="105.0" width="11.5" height="11.5"/><text class="c" x="82.0" y="112.0">6</text>
<rect class="q" x="87.8" y="105.0" width="11.5" height="11.5"/><text class="c" x="93.5" y="112.0">15</text>
<rect class="q" x="99.2" y="105.0" width="11.5" height="11.5"/><text class="c" x="105.0" y="112.0">20</text>
<rect class="q" x="110.8" y="105.0" width="11.5" height="11.5"/><text class="c" x="116.5" y="112.0">15</text>
<rect class="q" x="122.2" y="105.0" width="11.5" height="11.5"/><text class="c" x="128.0" y="112.0">6</text>
<rect class="q" x="133.8" y="105.0" width="11.5" height="11.5"/><text class="c" x="139.5" y="112.0">1</text>
<rect class="q" x="59.0" y="116.5" width="11.5" height="11.5"/><text class="c" x="64.8" y="123.5">1</text>
<rect class="q" x="70.5" y="116.5" width="11.5" height="11.5"/><text class="c" x="76.2" y="123.5">7</text>
<rect class="q" x="82.0" y="116.5" width="11.5" height="11.5"/><text class="c" x="87.8" y="123.5">21</text>
<rect class="q" x="93.5" y="116.5" width="11.5" height="11.5"/><text class="c" x="99.2" y="123.5">35</text>
<rect class="q" x="105.0" y="116.5" width="11.5" height="11.5"/><text class="c" x="110.8" y="123.5">35</text>
<rect class="q" x="116.5" y="116.5" width="11.5" height="11.5"/><text class="c" x="122.2" y="123.5">21</text>
<rect class="q" x="128.0" y="116.5" width="11.5" height="11.5"/><text class="c" x="133.8" y="123.5">7</text>
<rect class="q" x="139.5" y="116.5" width="11.5" height="11.5"/><text class="c" x="145.2" y="123.5">1</text>
<rect class="q" x="53.2" y="128.0" width="11.5" height="11.5"/><text class="c" x="59.0" y="134.9">1</text>
<rect class="q" x="64.8" y="128.0" width="11.5" height="11.5"/><text class="c" x="70.5" y="134.9">8</text>
<rect class="q" x="76.2" y="128.0" width="11.5" height="11.5"/><text class="c" x="82.0" y="134.9">28</text>
<rect class="q" x="87.8" y="128.0" width="11.5" height="11.5"/><text class="c" x="93.5" y="134.9">56</text>
<rect class="q" x="99.2" y="128.0" width="11.5" height="11.5"/><text class="c" x="105.0" y="134.9">70</text>
<rect class="q" x="110.8" y="128.0" width="11.5" height="11.5"/><text class="c" x="116.5" y="134.9">56</text>
<rect class="q" x="122.2" y="128.0" width="11.5" height="11.5"/><text class="c" x="128.0" y="134.9">28</text>
<rect class="q" x="133.8" y="128.0" width="11.5" height="11.5"/><text class="c" x="139.5" y="134.9">8</text>
<rect class="q" x="145.2" y="128.0" width="11.5" height="11.5"/><text class="c" x="151.0" y="134.9">1</text>
<rect class="q" x="47.5" y="139.5" width="11.5" height="11.5"/><text class="c" x="53.2" y="146.4">1</text>
<rect class="q" x="59.0" y="139.5" width="11.5" height="11.5"/><text class="c" x="64.8" y="146.4">9</text>
<rect class="q" x="70.5" y="139.5" width="11.5" height="11.5"/><text class="c" x="76.2" y="146.4">36</text>
<rect class="q" x="82.0" y="139.5" width="11.5" height="11.5"/><text class="c" x="87.8" y="146.4">84</text>
<rect class="q" x="93.5" y="139.5" width="11.5" height="11.5"/><text class="c" x="99.2" y="146.4">126</text>
<rect class="q" x="105.0" y="139.5" width="11.5" height="11.5"/><text class="c" x="110.8" y="146.4">126</text>
<rect class="q" x="116.5" y="139.5" width="11.5" height="11.5"/><text class="c" x="122.2" y="146.4">84</text>
<rect class="q" x="128.0" y="139.5" width="11.5" height="11.5"/><text class="c" x="133.8" y="146.4">36</text>
<rect class="q" x="139.5" y="139.5" width="11.5" height="11.5"/><text class="c" x="145.2" y="146.4">9</text>
<rect class="q" x="151.0" y="139.5" width="11.5" height="11.5"/><text class="c" x="156.8" y="146.4">1</text>
<rect class="q" x="41.8" y="151.0" width="11.5" height="11.5"/><text class="c" x="47.5" y="157.9">1</text>
<rect class="q" x="53.2" y="151.0" width="11.5" height="11.5"/><text class="c" x="59.0" y="157.9">10</text>
<rect class="q" x="64.8" y="151.0" width="11.5" height="11.5"/><text class="c" x="70.5" y="157.9">45</text>
<rect class="q" x="76.2" y="151.0" width="11.5" height="11.5"/><text class="c" x="82.0" y="157.9">120</text>
<rect class="q" x="87.8" y="151.0" width="11.5" height="11.5"/><text class="c" x="93.5" y="157.9">210</text>
<rect class="q" x="99.2" y="151.0" width="11.5" height="11.5"/><text class="c" x="105.0" y="157.9">252</text>
<rect class="q" x="110.8" y="151.0" width="11.5" height="11.5"/><text class="c" x="116.5" y="157.9">210</text>
<rect class="q" x="122.2" y="151.0" width="11.5" height="11.5"/><text class="c" x="128.0" y="157.9">120</text>
<rect class="q" x="133.8" y="151.0" width="11.5" height="11.5"/><text class="c" x="139.5" y="157.9">45</text>
<rect class="q" x="145.2" y="151.0" width="11.5" height="11.5"/><text class="c" x="151.0" y="157.9">10</text>
<rect class="q" x="156.8" y="151.0" width="11.5" height="11.5"/><text class="c" x="162.5" y="157.9">1</text>
<rect class="q" x="36.0" y="162.5" width="11.5" height="11.5"/><text class="c" x="41.8" y="169.4">1</text>
<rect class="q" x="47.5" y="162.5" width="11.5" height="11.5"/><text class="c" x="53.2" y="169.4">11</text>
<rect class="q" x="59.0" y="162.5" width="11.5" height="11.5"/><text class="c" x="64.8" y="169.4">55</text>
<rect class="q" x="70.5" y="162.5" width="11.5" height="11.5"/><text class="c" x="76.2" y="169.4">165</text>
<rect class="q" x="82.0" y="162.5" width="11.5" height="11.5"/><text class="c" x="87.8" y="169.4">330</text>
<rect class="q" x="93.5" y="162.5" width="11.5" height="11.5"/><text class="c" x="99.2" y="169.4">462</text>
<rect class="q" x="105.0" y="162.5" width="11.5" height="11.5"/><text class="c" x="110.8" y="169.4">462</text>
<rect class="q" x="116.5" y="162.5" width="11.5" height="11.5"/><text class="c" x="122.2" y="169.4">330</text>
<rect class="q" x="128.0" y="162.5" width="11.5" height="11.5"/><text class="c" x="133.8" y="169.4">165</text>
<rect class="q" x="139.5" y="162.5" width="11.5" height="11.5"/><text class="c" x="145.2" y="169.4">55</text>
<rect class="q" x="151.0" y="162.5" width="11.5" height="11.5"/><text class="c" x="156.8" y="169.4">11</text>
<rect class="q" x="162.5" y="162.5" width="11.5" height="11.5"/><text class="c" x="168.2" y="169.4">1</text>
<rect class="q" x="30.2" y="174.0" width="11.5" height="11.5"/><text class="c" x="36.0" y="180.9">1</text>
<rect class="q" x="41.8" y="174.0" width="11.5" height="11.5"/><text class="c" x="47.5" y="180.9">12</text>
<rect class="q" x="53.2" y="174.0" width="11.5" height="11.5"/><text class="c" x="59.0" y="180.9">66</text>
<rect class="q" x="64.8" y="174.0" width="11.5" height="11.5"/><text class="c" x="70.5" y="180.9">220</text>
<rect class="q" x="76.2" y="174.0" width="11.5" height="11.5"/><text class="c" x="82.0" y="180.9">495</text>
<rect class="q" x="87.8" y="174.0" width="11.5" height="11.5"/><text class="c" x="93.5" y="180.9">792</text>
<rect class="q" x="99.2" y="174.0" width="11.5" height="11.5"/><text class="c" x="105.0" y="180.9">924</text>
<rect class="q" x="110.8" y="174.0" width="11.5" height="11.5"/><text class="c" x="116.5" y="180.9">792</text>
<rect class="q" x="122.2" y="174.0" width="11.5" height="11.5"/><text class="c" x="128.0" y="180.9">495</text>
<rect class="q" x="133.8" y="174.0" width="11.5" height="11.5"/><text class="c" x="139.5" y="180.9">220</text>
<rect class="q" x="145.2" y="174.0" width="11.5" height="11.5"/><text class="c" x="151.0" y="180.9">66</text>
<rect class="q" x="156.8" y="174.0" width="11.5" height="11.5"/><text class="c" x="162.5" y="180.9">12</text>
<rect class="q" x="168.2" y="174.0" width="11.5" height="11.5"/><text class="c" x="174.0" y="180.9">1</text>
<rect class="q" x="24.5" y="185.5" width="11.5" height="11.5"/><text class="c" x="30.2" y="192.4">1</text>
<rect class="q" x="36.0" y="185.5" width="11.5" height="11.5"/><text class="c" x="41.8" y="192.4">13</text>
<rect class="q" x="47.5" y="185.5" width="11.5" height="11.5"/><text class="c" x="53.2" y="192.4">78</text>
<rect class="q" x="59.0" y="185.5" width="11.5" height="11.5"/><text class="c" x="64.8" y="192.4">286</text>
<rect class="q" x="70.5" y="185.5" width="11.5" height="11.5"/><text class="c" x="76.2" y="192.4">715</text>
<rect class="q" x="82.0" y="185.5" width="11.5" height="11.5"/><text class="c4" x="87.8" y="192.4">1287</text>
<rect class="q" x="93.5" y="185.5" width="11.5" height="11.5"/><text class="c4" x="99.2" y="192.4">1716</text>
<rect class="q" x="105.0" y="185.5" width="11.5" height="11.5"/><text class="c4" x="110.8" y="192.4">1716</text>
<rect class="q" x="116.5" y="185.5" width="11.5" height="11.5"/><text class="c4" x="122.2" y="192.4">1287</text>
<rect class="q" x="128.0" y="185.5" width="11.5" height="11.5"/><text class="c" x="133.8" y="192.4">715</text>
<rect class="q" x="139.5" y="185.5" width="11.5" height="11.5"/><text class="c" x="145.2" y="192.4">286</text>
<rect class="q" x="151.0" y="185.5" width="11.5" height="11.5"/><text class="c" x="156.8" y="192.4">78</text>
<rect class="q" x="162.5" y="185.5" width="11.5" height="11.5"/><text class="c" x="168.2" y="192.4">13</text>
<rect class="q" x="174.0" y="185.5" width="11.5" height="11.5"/><text class="c" x="179.8" y="192.4">1</text>
<rect class="q" x="18.8" y="197.0" width="11.5" height="11.5"/><text class="c" x="24.5" y="203.9">1</text>
<rect class="q" x="30.2" y="197.0" width="11.5" height="11.5"/><text class="c" x="36.0" y="203.9">14</text>
<rect class="q" x="41.8" y="197.0" width="11.5" height="11.5"/><text class="c" x="47.5" y="203.9">91</text>
<rect class="q" x="53.2" y="197.0" width="11.5" height="11.5"/><text class="c" x="59.0" y="203.9">364</text>
<rect class="q" x="64.8" y="197.0" width="11.5" height="11.5"/><text class="c4" x="70.5" y="203.9">1001</text>
<rect class="q" x="76.2" y="197.0" width="11.5" height="11.5"/><text class="c4" x="82.0" y="203.9">2002</text>
<rect class="q" x="87.8" y="197.0" width="11.5" height="11.5"/><text class="c4" x="93.5" y="203.9">3003</text>
<rect class="q" x="99.2" y="197.0" width="11.5" height="11.5"/><text class="c4" x="105.0" y="203.9">3432</text>
<rect class="q" x="110.8" y="197.0" width="11.5" height="11.5"/><text class="c4" x="116.5" y="203.9">3003</text>
<rect class="q" x="122.2" y="197.0" width="11.5" height="11.5"/><text class="c4" x="128.0" y="203.9">2002</text>
<rect class="q" x="133.8" y="197.0" width="11.5" height="11.5"/><text class="c4" x="139.5" y="203.9">1001</text>
<rect class="q" x="145.2" y="197.0" width="11.5" height="11.5"/><text class="c" x="151.0" y="203.9">364</text>
<rect class="q" x="156.8" y="197.0" width="11.5" height="11.5"/><text class="c" x="162.5" y="203.9">91</text>
<rect class="q" x="168.2" y="197.0" width="11.5" height="11.5"/><text class="c" x="174.0" y="203.9">14</text>
<rect class="q" x="179.8" y="197.0" width="11.5" height="11.5"/><text class="c" x="185.5" y="203.9">1</text>
<rect class="q" x="13.0" y="208.5" width="11.5" height="11.5"/><text class="c" x="18.8" y="215.4">1</text>
<rect class="q" x="24.5" y="208.5" width="11.5" height="11.5"/><text class="c" x="30.2" y="215.4">15</text>
<rect class="q" x="36.0" y="208.5" width="11.5" height="11.5"/><text class="c" x="41.8" y="215.4">105</text>
<rect class="q" x="47.5" y="208.5" width="11.5" height="11.5"/><text class="c" x="53.2" y="215.4">455</text>
<rect class="q" x="59.0" y="208.5" width="11.5" height="11.5"/><text class="c4" x="64.8" y="215.4">1365</text>
<rect class="q" x="70.5" y="208.5" width="11.5" height="11.5"/><text class="c4" x="76.2" y="215.4">3003</text>
<rect class="q" x="82.0" y="208.5" width="11.5" height="11.5"/><text class="c4" x="87.8" y="215.4">5005</text>
<rect class="q" x="93.5" y="208.5" width="11.5" height="11.5"/><text class="c4" x="99.2" y="215.4">6435</text>
<rect class="q" x="105.0" y="208.5" width="11.5" height="11.5"/><text class="c4" x="110.8" y="215.4">6435</text>
<rect class="q" x="116.5" y="208.5" width="11.5" height="11.5"/><text class="c4" x="122.2" y="215.4">5005</text>
<rect class="q" x="128.0" y="208.5" width="11.5" height="11.5"/><text class="c4" x="133.8" y="215.4">3003</text>
<rect class="q" x="139.5" y="208.5" width="11.5" height="11.5"/><text class="c4" x="145.2" y="215.4">1365</text>
<rect class="q" x="151.0" y="208.5" width="11.5" height="11.5"/><text class="c" x="156.8" y="215.4">455</text>
<rect class="q" x="162.5" y="208.5" width="11.5" height="11.5"/><text class="c" x="168.2" y="215.4">105</text>
<rect class="q" x="174.0" y="208.5" width="11.5" height="11.5"/><text class="c" x="179.8" y="215.4">15</text>
<rect class="q" x="185.5" y="208.5" width="11.5" height="11.5"/><text class="c" x="191.2" y="215.4">1</text>
<text class="s" x="15" y="258">上は 1、その下は両どなりの和。奇数のマスを黒くぬる。各行の黒の数を右に書く。次に、3 の倍数でないマスをぬると？</text>
<text class="f" x="15" y="284">名前：＿＿＿＿＿＿＿＿　　気づいたこと：</text>
</svg>