<?xml version="1.0" encoding="utf-8"?>
<svg xmlns="http://www.w3.org/2000/svg" width="210mm" height="297mm" viewBox="0 0 210 297">
<style>text{font-family:'Noto Sans JP','Hiragino Sans','Yu Gothic','Meiryo',sans-serif}.t{font-size:6.5px;fill:#111;text-anchor:middle}.n{font-size:3.6px;fill:#444;text-anchor:middle}.s{font-size:3.6px;fill:#333}.f{font-size:3.8px;fill:#333}.c{font-size:3.4px;fill:#111;text-anchor:middle}.g{font-size:4.2px;fill:#111;text-anchor:middle}.d{font-size:5px;fill:#111;text-anchor:middle;font-weight:bold}circle.d{fill:#111}rect.q{fill:#fff;stroke:#999;stroke-width:.25}line.l{stroke:#999;stroke-width:.3}line.a{stroke:#111;stroke-width:.5}line.k{stroke:#bbb;stroke-width:.25}</style>
<rect width="210" height="297" fill="#fff"/>
<text class="t" x="105" y="22">数のらせん　1〜121</text>
<defs><pattern id="g" width="15" height="15" patternUnits="userSpaceOnUse" x="22.5" y="40"><path d="M15 0H0V15" fill="none" stroke="#999" stroke-width=".25"/></pattern></defs>
<rect x="22.5" y="40" width="165" height="165" fill="url(#g)" stroke="#999" stroke-width=".25"/>
<text class="g" x="30.0" y="49.0">101</text>
<text class="g" x="45.0" y="49.0">100</text>
<text class="g" x="60.0" y="49.0">99</text>
<text class="g" x="75.0" y="49.0">98</text>
<text class="g" x="90.0" y="49.0">97</text>
<text class="g" x="105.0" y="49.0">96</text>
<text class="g" x="120.0" y="49.0">95</text>
<text class="g" x="135.0" y="49.0">94</text>
<text class="g" x="150.0" y="49.0">93</text>
<text class="g" x="165.0" y="49.0">92</text>
<text class="g" x="180.0" y="49.0">91</text>
<text class="g" x="30.0" y="64.0">102</text>
<text class="g" x="45.0" y="64.0">65</text>
<text class="g" x="60.0" y="64.0">64</text>
<text class="g" x="75.0" y="64.0">63</text>
<text class="g" x="90.0" y="64.0">62</text>
<text class="g" x="105.0" y="64.0">61</text>
<text class="g" x="120.0" y="64.0">60</text>
<text class="g" x="135.0" y="64.0">59</text>
<text class="g" x="150.0" y="64.0">58</text>
<text class="g" x="165.0" y="64.0">57</text>
<text class="g" x="180.0" y="64.0">90</text>
<text class="g" x="30.0" y="79.0">103</text>
<text class="g" x="45.0" y="79.0">66</text>
<text class="g" x="60.0" y="79.0">37</text>
<text class="g" x="75.0" y="79.0">36</text>
<text class="g" x="90.0" y="79.0">35</text>
<text class="g" x="105.0" y="79.0">34</text>
<text class="g" x="120.0" y="79.0">33</text>
<text class="g" x="135.0" y="79.0">32</text>
<text class="g" x="150.0" y="79.0">31</text>
<text class="g" x="165.0" y="79.0">56</text>
<text class="g" x="180.0" y="79.0">89</text>
<text class="g" x="30.0" y="94.0">104</text>
<text class="g" x="45.0" y="94.0">67</text>
<text class="g" x="60.0" y="94.0">38</text>
<text class="g" x="75.0" y="94.0">17</text>
<text class="g" x="90.0" y="94.0">16</text>
<text class="g" x="105.0" y="94.0">15</text>
<text class="g" x="120.0" y="94.0">14</text>
<text class="g" x="135.0" y="94.0">13</text>
<text class="g" x="150.0" y="94.0">30</text>
<text class="g" x="165.0" y="94.0">55</text>
<text class="g" x="180.0" y="94.0">88</text>
<text class="g" x="30.0" y="109.0">105</text>
<text class="g" x="45.0" y="109.0">68</text>
<text class="g" x="60.0" y="109.0">39</text>
<text class="g" x="75.0" y="109.0">18</text>
<text class="g" x="90.0" y="109.0">5</text>
<text class="g" x="105.0" y="109.0">4</text>
<text class="g" x="120.0" y="109.0">3</text>
<text class="g" x="135.0" y="109.0">12</text>
<text class="g" x="150.0" y="109.0">29</text>
<text class="g" x="165.0" y="109.0">54</text>
<text class="g" x="180.0" y="109.0">87</text>
<text class="g" x="30.0" y="124.0">106</text>
<text class="g" x="45.0" y="124.0">69</text>
<text class="g" x="60.0" y="124.0">40</text>
<text class="g" x="75.0" y="124.0">19</text>
<text class="g" x="90.0" y="124.0">6</text>
<text class="g" x="105.0" y="124.0">1</text>
<text class="g" x="120.0" y="124.0">2</text>
<text class="g" x="135.0" y="124.0">11</text>
<text class="g" x="150.0" y="124.0">28</text>
<text class="g" x="165.0" y="124.0">53</text>
<text class="g" x="180.0" y="124.0">86</text>
<text class="g" x="30.0" y="139.0">107</text>
<text class="g" x="45.0" y="139.0">70</text>
<text class="g" x="60.0" y="139.0">41</text>
<text class="g" x="75.0" y="139.0">20</text>
<text class="g" x="90.0" y="139.0">7</text>
<text class="g" x="105.0" y="139.0">8</text>
<text class="g" x="120.0" y="139.0">9</text>
<text class="g" x="135.0" y="139.0">10</text>
<text class="g" x="150.0" y="139.0">27</text>
<text class="g" x="165.0" y="139.0">52</text>
<text class="g" x="180.0" y="139.0">85</text>
<text class="g" x="30.0" y="154.0">108</text>
<text class="g" x="45.0" y="154.0">71</text>
<text class="g" x="60.0" y="154.0">42</text>
<text class="g" x="75.0" y="154.0">21</text>
<text class="g" x="90.0" y="154.0">22</text>
<text class="g" x="105.0" y="154.0">23</text>
<text class="g" x="120.0" y="154.0">24</text>
<text class="g" x="135.0" y="154.0">25</text>
<text class="g" x="150.0" y="154.0">26</text>
<text class="g" x="165.0" y="154.0">51</text>
<text class="g" x="180.0" y="154.0">84</text>
<text class="g" x="30.0" y="169.0">109</text>
<text class="g" x="45.0" y="169.0">72</text>
<text class="g" x="60.0" y="169.0">43</text>
<text class="g" x="75.0" y="169.0">44</text>
<text class="g" x="90.0" y="169.0">45</text>
<text class="g" x="105.0" y="169.0">46</text>
<text class="g" x="120.0" y="169.0">47</text>
<text class="g" x="135.0" y="169.0">48</text>
<text class="g" x="150.0" y="169.0">49</text>
<text class="g" x="165.0" y="169.0">50</text>
<text class="g" x="180.0" y="169.0">83</text>
<text class="g" x="30.0" y="184.0">110</text>
<text class="g" x="45.0" y="184.0">73</text>
<text class="g" x="60.0" y="184.0">74</text>
<text class="g" x="75.0" y="184.0">75</text>
<text class="g" x="90.0" y="184.0">76</text>
<text class="g" x="105.0" y="184.0">77</text>
<text class="g" x="120.0" y="184.0">78</text>
<text class="g" x="135.0" y="184.0">79</text>
<text class="g" x="150.0" y="184.0">80</text>
<text class="g" x="165.0" y="184.0">81</text>
<text class="g" x="180.0" y="184.0">82</text>
<text class="g" x="30.0" y="199.0">111</text>
<text class="g" x="45.0" y="199.0">112</text>
<text class="g" x="60.0" y="199.0">113</text>
<text class="g" x="75.0" y="199.0">114</text>
<text class="g" x="90.0" y="199.0">115</text>
<text class="g" x="105.0" y="199.0">116</text>
<text class="g" x="120.0" y="199.0">117</text>
<text class="g" x="135.0" y="199.0">118</text>
<text class="g" x="150.0" y="199.0">119</text>
<text class="g" x="165.0" y="199.0">120</text>
<text class="g" x="180.0" y="199.0">121</text>
<text class="s" x="15" y="258">1 が真ん中。2, 3, 4, … が外へぐるぐる並んでいる。素数のマスを黒くぬる（1 は素数ではない。2 は素数）。</text>
<text class="s" x="15" y="263.2">黒は何個？ 黒は何かの線に乗っている？</text>
<text class="f" x="15" y="284">名前：＿＿＿＿＿＿＿＿　　黒の数 = ＿＿　　気づいたこと：</text>
</svg>
